<svg width="17" height="14" viewBox="0 0 17 14" fill="none" xmlns="http://www.w3.org/2000/svg">
<path d="M8.87723 13.6965C8.77009 13.8036 8.63914 13.8572 8.48438 13.8572C8.32961 13.8572 8.19866 13.8036 8.09152 13.6965L2.52009 8.32146C2.46057 8.27384 2.37872 8.19646 2.27455 8.08932C2.17039 7.98218 2.00521 7.78724 1.77902 7.5045C1.55283 7.22176 1.35045 6.93158 1.17188 6.63396C0.993304 6.33634 0.834077 5.97622 0.694196 5.55361C0.554315 5.13099 0.484375 4.72027 0.484375 4.32146C0.484375 3.01194 0.862351 1.98813 1.6183 1.25003C2.37426 0.511939 3.4189 0.142891 4.75223 0.142891C5.12128 0.142891 5.49777 0.20688 5.8817 0.334856C6.26563 0.462831 6.62277 0.635451 6.95313 0.852713C7.28348 1.06997 7.56771 1.27384 7.8058 1.46432C8.0439 1.6548 8.27009 1.85718 8.48438 2.07146C8.69866 1.85718 8.92485 1.6548 9.16295 1.46432C9.40104 1.27384 9.68527 1.06997 10.0156 0.852713C10.346 0.635451 10.7031 0.462831 11.0871 0.334856C11.471 0.20688 11.8475 0.142891 12.2165 0.142891C13.5499 0.142891 14.5945 0.511939 15.3504 1.25003C16.1064 1.98813 16.4844 3.01194 16.4844 4.32146C16.4844 5.63694 15.8028 6.97622 14.4397 8.33932L8.87723 13.6965Z" fill="#1BAACC"/>
</svg>
