<svg width="11" height="11" viewBox="0 0 11 11" fill="none" xmlns="http://www.w3.org/2000/svg">
<path d="M10.5642 8.19643C10.7308 8.3631 10.8142 8.56548 10.8142 8.80357C10.8142 9.04167 10.7308 9.24405 10.5642 9.41071L9.34989 10.625C9.18322 10.7917 8.98084 10.875 8.74275 10.875C8.50465 10.875 8.30227 10.7917 8.1356 10.625L5.5106 8L2.8856 10.625C2.71894 10.7917 2.51656 10.875 2.27846 10.875C2.04036 10.875 1.83798 10.7917 1.67132 10.625L0.457031 9.41071C0.290365 9.24405 0.207031 9.04167 0.207031 8.80357C0.207031 8.56548 0.290365 8.3631 0.457031 8.19643L3.08203 5.57143L0.457031 2.94643C0.290365 2.77976 0.207031 2.57738 0.207031 2.33928C0.207031 2.10119 0.290365 1.89881 0.457031 1.73214L1.67132 0.517857C1.83798 0.35119 2.04036 0.267857 2.27846 0.267857C2.51656 0.267857 2.71894 0.35119 2.8856 0.517857L5.5106 3.14286L8.1356 0.517857C8.30227 0.35119 8.50465 0.267857 8.74275 0.267857C8.98084 0.267857 9.18322 0.35119 9.34989 0.517857L10.5642 1.73214C10.7308 1.89881 10.8142 2.10119 10.8142 2.33928C10.8142 2.57738 10.7308 2.77976 10.5642 2.94643L7.93917 5.57143L10.5642 8.19643Z" fill="#D92047"/>
</svg>
