<svg width="32" height="27" viewBox="0 0 32 27" fill="none" xmlns="http://www.w3.org/2000/svg">
<g clip-path="url(#clip0_31_1640)">
<path d="M20.8644 20.3618C19.0539 22.6031 16.3486 24.1104 13.247 24.3146C7.35426 24.7025 2.26276 20.24 1.87481 14.3473C1.48685 8.45461 5.94935 3.36312 11.8421 2.97516C15.2548 2.75048 18.3988 4.15267 20.516 6.51736" stroke="#FEFEFE" stroke-width="3"/>
<mask id="mask0_31_1640" style="mask-type:luminance" maskUnits="userSpaceOnUse" x="18" y="8" width="13" height="12">
<path d="M30.6255 8.21863H18.6255V19.2186H30.6255V8.21863Z" fill="white"/>
</mask>
<g mask="url(#mask0_31_1640)">
<path d="M25.6255 10.1678C25.3816 10.1678 25.1303 10.2543 24.9341 10.4344L26.3173 17.0042L29.145 14.4121C29.5564 14.035 29.5571 13.4038 29.1446 13.0265L26.3169 10.4344C26.1208 10.2547 25.87 10.1678 25.6255 10.1678ZM24.9341 10.4344L24.8912 10.4738C24.4799 10.8508 24.479 11.4818 24.8912 11.8591L24.9341 10.4344ZM24.8912 11.8591L25.8753 12.7612H20.6255C20.1152 12.7612 19.6255 13.1503 19.6255 13.7195C19.6255 14.2887 20.1152 14.6778 20.6255 14.6778H25.8753L24.8912 15.5799C24.4799 15.9569 24.479 16.5879 24.8912 16.9652V11.8591ZM24.8912 16.9652L24.9341 17.0046C25.3204 17.3587 25.9307 17.359 26.3173 17.0042L24.8912 16.9652Z" fill="#FEFEFE"/>
<path d="M24.9341 10.4344C25.1303 10.2543 25.3816 10.1678 25.6255 10.1678C25.87 10.1678 26.1208 10.2547 26.3169 10.4344L29.1446 13.0265C29.5571 13.4038 29.5564 14.035 29.145 14.4121L26.3173 17.0042M24.9341 10.4344L26.3173 17.0042M24.9341 10.4344L24.8912 10.4738C24.4799 10.8508 24.479 11.4818 24.8912 11.8591M24.9341 10.4344L24.8912 11.8591M26.3173 17.0042C25.9307 17.359 25.3204 17.3587 24.9341 17.0046L24.8912 16.9652M26.3173 17.0042L24.8912 16.9652M24.8912 11.8591L25.8753 12.7612H20.6255C20.1152 12.7612 19.6255 13.1503 19.6255 13.7195C19.6255 14.2887 20.1152 14.6778 20.6255 14.6778H25.8753L24.8912 15.5799C24.4799 15.9569 24.479 16.5879 24.8912 16.9652M24.8912 11.8591V16.9652" stroke="#FEFEFE"/>
</g>
</g>
<defs>
<clipPath id="clip0_31_1640">
<rect width="31" height="26" fill="white" transform="translate(0.312988 0.710815)"/>
</clipPath>
</defs>
</svg>
