<svg width="151" height="151" viewBox="0 0 151 151" fill="none" xmlns="http://www.w3.org/2000/svg">
<g filter="url(#filter0_d_58_97)">
<rect x="25.9531" y="22.375" width="100" height="100" rx="50" fill="white" shape-rendering="crispEdges"/>
<path d="M93.4531 54.875C86.8906 55.7344 80.4062 56.5938 73.9219 57.4531C66.7344 58.4688 61.1094 64.25 60.7188 71.5156C60.4062 75.8906 62.125 80.1094 65.1719 83.1562L58.4531 89.875C64.9375 89.0156 71.4219 88.1562 77.9062 87.2969C85.0938 86.3594 90.7188 80.5781 91.1094 73.3125C91.4219 68.9375 89.7031 64.7188 86.5781 61.6719L93.4531 54.875ZM87.2031 73.0781C86.8906 79.25 81.4219 83.9375 75.25 83.5469C69.0781 83.2344 64.2344 78 64.625 71.75C64.9375 65.5781 70.4062 60.8906 76.5781 61.2812C82.75 61.5938 87.5156 66.8281 87.2031 73.0781Z" fill="#FB406C"/>
</g>
<defs>
<filter id="filter0_d_58_97" x="0.953125" y="0.375" width="150" height="150" filterUnits="userSpaceOnUse" color-interpolation-filters="sRGB">
<feFlood flood-opacity="0" result="BackgroundImageFix"/>
<feColorMatrix in="SourceAlpha" type="matrix" values="0 0 0 0 0 0 0 0 0 0 0 0 0 0 0 0 0 0 127 0" result="hardAlpha"/>
<feOffset dy="3"/>
<feGaussianBlur stdDeviation="12.5"/>
<feComposite in2="hardAlpha" operator="out"/>
<feColorMatrix type="matrix" values="0 0 0 0 0 0 0 0 0 0 0 0 0 0 0 0 0 0 0.1 0"/>
<feBlend mode="normal" in2="BackgroundImageFix" result="effect1_dropShadow_58_97"/>
<feBlend mode="normal" in="SourceGraphic" in2="effect1_dropShadow_58_97" result="shape"/>
</filter>
</defs>
</svg>
