<svg width="151" height="151" viewBox="0 0 151 151" fill="none" xmlns="http://www.w3.org/2000/svg">
<g filter="url(#filter0_d_58_90)">
<rect x="25.9688" y="22.375" width="100" height="100" rx="50" fill="white" shape-rendering="crispEdges"/>
<path d="M95.4219 86.9844L87.6094 79.1719C87.2188 78.8594 86.75 78.625 86.2812 78.625H85.0312C87.1406 75.8906 88.4688 72.4531 88.4688 68.625C88.4688 59.7188 81.125 52.375 72.2188 52.375C63.2344 52.375 55.9688 59.7188 55.9688 68.625C55.9688 77.6094 63.2344 84.875 72.2188 84.875C75.9688 84.875 79.4062 83.625 82.2188 81.4375V82.7656C82.2188 83.2344 82.375 83.7031 82.7656 84.0938L90.5 91.8281C91.2812 92.6094 92.4531 92.6094 93.1562 91.8281L95.3438 89.6406C96.125 88.9375 96.125 87.7656 95.4219 86.9844ZM72.2188 78.625C66.6719 78.625 62.2188 74.1719 62.2188 68.625C62.2188 63.1562 66.6719 58.625 72.2188 58.625C77.6875 58.625 82.2188 63.1562 82.2188 68.625C82.2188 74.1719 77.6875 78.625 72.2188 78.625Z" fill="#FB406C"/>
</g>
<defs>
<filter id="filter0_d_58_90" x="0.96875" y="0.375" width="150" height="150" filterUnits="userSpaceOnUse" color-interpolation-filters="sRGB">
<feFlood flood-opacity="0" result="BackgroundImageFix"/>
<feColorMatrix in="SourceAlpha" type="matrix" values="0 0 0 0 0 0 0 0 0 0 0 0 0 0 0 0 0 0 127 0" result="hardAlpha"/>
<feOffset dy="3"/>
<feGaussianBlur stdDeviation="12.5"/>
<feComposite in2="hardAlpha" operator="out"/>
<feColorMatrix type="matrix" values="0 0 0 0 0 0 0 0 0 0 0 0 0 0 0 0 0 0 0.1 0"/>
<feBlend mode="normal" in2="BackgroundImageFix" result="effect1_dropShadow_58_90"/>
<feBlend mode="normal" in="SourceGraphic" in2="effect1_dropShadow_58_90" result="shape"/>
</filter>
</defs>
</svg>
