<svg width="151" height="151" viewBox="0 0 151 151" fill="none" xmlns="http://www.w3.org/2000/svg">
<g filter="url(#filter0_d_58_82)">
<rect x="25.9844" y="22.375" width="100" height="100" rx="50" fill="white" shape-rendering="crispEdges"/>
<path d="M87.2344 57.375H80.9844C80.9844 54.6406 78.7188 52.375 75.9844 52.375C73.1719 52.375 70.9844 54.6406 70.9844 57.375H64.7344C62.625 57.375 60.9844 59.0938 60.9844 61.125V88.625C60.9844 90.7344 62.625 92.375 64.7344 92.375H87.2344C89.2656 92.375 90.9844 90.7344 90.9844 88.625V61.125C90.9844 59.0938 89.2656 57.375 87.2344 57.375ZM75.9844 55.5C77 55.5 77.8594 56.3594 77.8594 57.375C77.8594 58.4688 77 59.25 75.9844 59.25C74.8906 59.25 74.1094 58.4688 74.1094 57.375C74.1094 56.3594 74.8906 55.5 75.9844 55.5ZM83.4844 79.25C83.4844 79.6406 83.1719 79.875 82.8594 79.875H78.4844V84.25C78.4844 84.6406 78.1719 84.875 77.8594 84.875H74.1094C73.7188 84.875 73.4844 84.6406 73.4844 84.25V79.875H69.1094C68.7188 79.875 68.4844 79.6406 68.4844 79.25V75.5C68.4844 75.1875 68.7188 74.875 69.1094 74.875H73.4844V70.5C73.4844 70.1875 73.7188 69.875 74.1094 69.875H77.8594C78.1719 69.875 78.4844 70.1875 78.4844 70.5V74.875H82.8594C83.1719 74.875 83.4844 75.1875 83.4844 75.5V79.25ZM83.4844 64.25C83.4844 64.6406 83.1719 64.875 82.8594 64.875H69.1094C68.7188 64.875 68.4844 64.6406 68.4844 64.25V63C68.4844 62.6875 68.7188 62.375 69.1094 62.375H82.8594C83.1719 62.375 83.4844 62.6875 83.4844 63V64.25Z" fill="#FB406C"/>
</g>
<defs>
<filter id="filter0_d_58_82" x="0.984375" y="0.375" width="150" height="150" filterUnits="userSpaceOnUse" color-interpolation-filters="sRGB">
<feFlood flood-opacity="0" result="BackgroundImageFix"/>
<feColorMatrix in="SourceAlpha" type="matrix" values="0 0 0 0 0 0 0 0 0 0 0 0 0 0 0 0 0 0 127 0" result="hardAlpha"/>
<feOffset dy="3"/>
<feGaussianBlur stdDeviation="12.5"/>
<feComposite in2="hardAlpha" operator="out"/>
<feColorMatrix type="matrix" values="0 0 0 0 0 0 0 0 0 0 0 0 0 0 0 0 0 0 0.1 0"/>
<feBlend mode="normal" in2="BackgroundImageFix" result="effect1_dropShadow_58_82"/>
<feBlend mode="normal" in="SourceGraphic" in2="effect1_dropShadow_58_82" result="shape"/>
</filter>
</defs>
</svg>
