<svg width="11" height="14" viewBox="0 0 11 14" fill="none" xmlns="http://www.w3.org/2000/svg">
<g clip-path="url(#clip0_73_2254)">
<path d="M7.82606 8.21088C7.13052 8.69511 6.31706 8.95306 5.48552 8.95306C4.65397 8.95306 3.84051 8.69511 3.14498 8.21088C2.2481 8.65889 1.48142 9.35544 0.925603 10.2273C0.369785 11.0991 0.0453671 12.114 -0.0135253 13.1651C-0.0162284 13.2097 -0.0102804 13.2543 0.0039492 13.2963C0.0181788 13.3383 0.0403858 13.3768 0.0691901 13.4092C0.0980201 13.4414 0.132732 13.4669 0.171192 13.4843C0.209651 13.5016 0.251045 13.5104 0.292828 13.5102H10.6935C10.7353 13.5104 10.7767 13.5016 10.8152 13.4843C10.8536 13.4669 10.8883 13.4414 10.9172 13.4092C10.946 13.3768 10.9682 13.3383 10.9824 13.2963C10.9966 13.2543 11.0026 13.2097 10.9999 13.1651C10.9396 12.1122 10.6128 11.0962 10.0542 10.2242C9.49561 9.35222 8.72581 8.65664 7.82606 8.21088Z" fill="white"/>
<path d="M5.48581 8.30204C7.51614 8.30204 9.16205 6.55322 9.16205 4.39594C9.16205 2.23866 7.51614 0.489838 5.48581 0.489838C3.45548 0.489838 1.80957 2.23866 1.80957 4.39594C1.80957 6.55322 3.45548 8.30204 5.48581 8.30204Z" fill="white"/>
</g>
<defs>
<clipPath id="clip0_73_2254">
<rect width="11" height="13" fill="white" transform="translate(0 0.5)"/>
</clipPath>
</defs>
</svg>
