<svg width="17" height="17" viewBox="0 0 17 17" fill="none" xmlns="http://www.w3.org/2000/svg">
<g clip-path="url(#clip0_127_3450)">
<path d="M14.6796 0.818359H2.17626C1.41131 0.818359 0.773438 1.45624 0.773438 2.22119V14.7246C0.773438 15.4895 1.41131 16.1274 2.17626 16.1274H8.42795V9.74863H6.51432V7.835H8.42795V5.92137C8.42795 4.32668 9.06583 3.36987 10.9794 3.36987H12.8931V5.2835H12.0633C11.4902 5.2835 10.9794 5.79429 10.9794 6.36739V7.835H13.5309L13.212 9.74863H10.9794V16.1274H14.6796C15.4446 16.1274 16.0825 15.4895 16.0825 14.7246V2.22119C16.0825 1.45624 15.4446 0.818359 14.6796 0.818359Z" fill="white"/>
</g>
<defs>
<clipPath id="clip0_127_3450">
<rect width="16" height="16" fill="white" transform="translate(0.125 0.5)"/>
</clipPath>
</defs>
</svg>
