<svg width="17" height="17" viewBox="0 0 17 17" fill="none" xmlns="http://www.w3.org/2000/svg">
<g clip-path="url(#clip0_127_3455)">
<path fill-rule="evenodd" clip-rule="evenodd" d="M0.886719 2.21371C0.886719 1.44876 1.51712 0.818359 2.28207 0.818359H14.8004C15.5653 0.818359 16.1957 1.44876 16.1957 2.21371V14.732C16.1957 15.497 15.5653 16.1274 14.8004 16.1274H2.28207C1.51712 16.1274 0.886719 15.497 0.886719 14.732V2.21371ZM9.55785 3.31006H6.7472C6.04454 3.31006 5.10019 3.42966 4.33523 4.06754C3.76214 4.51355 3.43822 5.22369 3.43822 5.86156C3.43822 6.94545 4.27543 8.01938 5.87012 7.9546H6.30866C6.24388 8.08167 6.18906 8.21872 6.18906 8.47287C6.18906 8.85659 6.37594 9.11573 6.5678 9.36988C6.5073 9.37603 6.44225 9.38215 6.37334 9.38864C5.71579 9.45052 4.70753 9.54541 3.9565 10.0078C3.12676 10.5186 2.86014 11.1515 2.86014 11.6623C2.86014 12.6191 3.81198 13.5759 5.79039 13.5759C8.08774 13.5759 9.37846 12.3001 9.37846 11.0244C9.37846 10.1316 8.87084 9.68356 8.33736 9.21264C8.29908 9.17885 8.26066 9.14494 8.22229 9.11075L7.70402 8.73201C7.51216 8.60493 7.32528 8.47287 7.32528 8.15393C7.32528 7.89978 7.51216 7.70792 7.70402 7.51606L7.71688 7.50605C8.2858 7.06334 8.86017 6.61638 8.86017 5.60243C8.86017 4.67487 8.33433 4.16635 7.9988 3.84187C7.96478 3.80897 7.93272 3.77796 7.90336 3.7486H8.66083L9.55785 3.31006ZM5.92992 3.7486C5.5462 3.7486 5.16497 3.95292 4.97311 4.20708C4.71896 4.52602 4.65417 4.90476 4.65417 5.22369C4.65417 6.11572 5.1575 7.63566 6.36846 7.63566C6.6874 7.63566 7.07113 7.44879 7.32528 7.25693C7.64422 6.93799 7.64422 6.49197 7.64422 6.30011C7.64422 5.27851 7.0786 3.7486 5.92992 3.7486ZM5.0927 10.0078C5.66579 9.81591 6.44071 9.80844 6.56779 9.80844H6.94652C7.96812 10.5111 8.42161 10.8998 8.42161 11.6025C8.42161 12.4322 7.70899 13.0576 6.36845 13.0576C4.90084 13.0576 3.95648 12.3599 3.95648 11.4031C3.95648 10.4598 4.75089 10.1438 5.07892 10.0133C5.08361 10.0114 5.0882 10.0096 5.0927 10.0078Z" fill="white"/>
</g>
<defs>
<clipPath id="clip0_127_3455">
<rect width="16" height="16" fill="white" transform="translate(0.703125 0.5)"/>
</clipPath>
</defs>
</svg>
