<svg width="274" height="54" viewBox="0 0 274 54" fill="none" xmlns="http://www.w3.org/2000/svg">
<g clip-path="url(#clip0_60_6156)">
<path d="M5.9062 39.2832H7.71582L12.6306 50.5111H10.5536L9.42262 47.8378H4.15828L3.00671 50.5111H0.991455L5.9062 39.2832ZM8.70288 46.0898L6.76988 41.6275L4.85745 46.0898H8.70288Z" fill="#444444"/>
<path d="M19.0872 42.1011H21.0202V43.4994C21.6371 42.6152 22.5214 41.916 23.8786 41.916C25.8733 41.916 27.8063 43.4994 27.8063 46.2755V46.3167C27.8063 49.1134 25.8939 50.6762 23.8786 50.6762C22.5008 50.6762 21.6166 49.977 21.0202 49.1956V53.041H19.0872V42.1011ZM25.8322 46.3372V46.2961C25.8322 44.6716 24.7423 43.6022 23.4262 43.6022C22.1101 43.6022 20.9791 44.6921 20.9791 46.2961V46.3372C20.9791 47.9618 22.1307 49.0311 23.4262 49.0311C24.7423 49.0311 25.8322 47.9823 25.8322 46.3372Z" fill="#444444"/>
<path d="M34.922 50.5105V49.4824C34.3463 50.161 33.4826 50.6956 32.2076 50.6956C30.6242 50.6956 29.2053 49.7908 29.2053 48.1046V48.0635C29.2053 46.1921 30.6448 45.3079 32.6189 45.3079C33.6471 45.3079 34.2846 45.4518 34.9426 45.6575V45.493C34.9426 44.3208 34.2023 43.6834 32.8657 43.6834C31.9197 43.6834 31.2206 43.889 30.4597 44.218L29.925 42.6757C30.8504 42.2645 31.7552 41.9766 33.133 41.9766C35.6212 41.9766 36.8345 43.2926 36.8345 45.5341V50.5105H34.922ZM34.9632 46.9941C34.4696 46.8091 33.791 46.6651 33.0302 46.6651C31.8169 46.6651 31.0972 47.1586 31.0972 47.9812V48.0223C31.0972 48.8243 31.8169 49.2562 32.7217 49.2562C33.9967 49.2562 34.9426 48.5364 34.9426 47.4877V46.9941H34.9632Z" fill="#444444"/>
<path d="M39.1165 42.1012H41.0495V43.9931C41.5842 42.7387 42.5507 41.875 44.0313 41.9367V43.9725H43.9079C42.2217 43.9725 41.0495 45.0624 41.0495 47.3039V50.5118H39.1165V42.1012Z" fill="#444444"/>
<path d="M46.1086 48.1869V43.7657H45.0393V42.1H46.1086V39.7969H48.0416V42.1H50.3036V43.7657H48.0416V47.899C48.0416 48.6393 48.4323 48.9478 49.0698 48.9478C49.5016 48.9478 49.8923 48.845 50.2625 48.6599V50.2433C49.7895 50.5106 49.2343 50.6751 48.5351 50.6751C47.0957 50.6546 46.1086 50.0377 46.1086 48.1869Z" fill="#444444"/>
<path d="M56.5549 46.3578V46.3167C56.5549 43.9107 58.4673 41.916 61.0378 41.916C63.6083 41.916 65.5207 43.8696 65.5207 46.2755V46.3167C65.5207 48.7021 63.6083 50.6968 61.0173 50.6968C58.4468 50.7173 56.5549 48.7432 56.5549 46.3578ZM63.5877 46.3578V46.3167C63.5877 44.8361 62.5184 43.6022 61.0173 43.6022C59.475 43.6022 58.4879 44.8155 58.4879 46.2755V46.3167C58.4879 47.7767 59.5572 49.0311 61.0584 49.0311C62.6007 49.0311 63.5877 47.8178 63.5877 46.3578Z" fill="#444444"/>
<path d="M67.9066 43.7664H66.8372V42.1624H67.9066V41.5661C67.9066 40.6202 68.1533 39.921 68.5852 39.4892C69.0376 39.0367 69.6545 38.8105 70.477 38.8105C71.1556 38.8105 71.608 38.9134 72.0399 39.0367V40.6613C71.6492 40.5379 71.3201 40.4557 70.9089 40.4557C70.1686 40.4557 69.7984 40.8464 69.7984 41.7306V42.183H72.0193V43.7664H69.819V50.5114H67.886V43.7664H67.9066Z" fill="#444444"/>
<path d="M77.5706 49.4208L78.4343 48.1047C79.3391 48.7833 80.3262 49.1329 81.1899 49.1329C82.0124 49.1329 82.5059 48.7833 82.5059 48.2281V48.1869C82.5059 47.5289 81.6217 47.3027 80.6346 47.0148C79.4008 46.6652 78.0025 46.1511 78.0025 44.5472V44.506C78.0025 42.9226 79.3186 41.9355 81.0048 41.9355C82.0535 41.9355 83.2051 42.3057 84.0894 42.8815L83.3285 44.2593C82.5059 43.7657 81.6628 43.4573 80.9637 43.4573C80.2234 43.4573 79.7915 43.8069 79.7915 44.3004V44.3415C79.7915 44.9379 80.6963 45.2052 81.6834 45.5137C82.9172 45.9044 84.295 46.4596 84.295 47.9607V48.0019C84.295 49.7704 82.9172 50.6546 81.1693 50.6546C79.9355 50.6752 78.6194 50.2433 77.5706 49.4208Z" fill="#444444"/>
<path d="M86.2493 38.9961H88.3263V40.8263H86.2493V38.9961ZM86.3316 42.1012H88.2646V50.5118H86.3316V42.1012Z" fill="#444444"/>
<path d="M90.7727 42.1001H92.7057V43.4161C93.2403 42.6142 94.0218 41.9355 95.3379 41.9355C97.2297 41.9355 98.3402 43.2105 98.3402 45.1641V50.5107H96.4072V45.7399C96.4072 44.4238 95.7491 43.6835 94.5976 43.6835C93.4871 43.6835 92.7057 44.4649 92.7057 45.7604V50.5107H90.7727V42.1001Z" fill="#444444"/>
<path d="M100.623 52.0941L101.343 50.6546C102.227 51.2098 103.193 51.5388 104.345 51.5388C106.072 51.5388 106.998 50.6546 106.998 48.9684V48.3103C106.299 49.2151 105.414 49.8526 104.037 49.8526C102.062 49.8526 100.212 48.3926 100.212 45.9249V45.8838C100.212 43.3956 102.083 41.9355 104.037 41.9355C105.456 41.9355 106.34 42.5936 106.977 43.375V42.1206H108.91V48.8039C108.91 50.2228 108.54 51.2715 107.841 51.9707C107.08 52.7316 105.887 53.1017 104.386 53.1017C103.008 53.1017 101.713 52.7521 100.623 52.0941ZM107.018 45.9249V45.8838C107.018 44.506 105.887 43.5601 104.551 43.5601C103.214 43.5601 102.165 44.4855 102.165 45.8632V45.9044C102.165 47.2821 103.235 48.2281 104.551 48.2281C105.887 48.2281 107.018 47.2616 107.018 45.9249Z" fill="#444444"/>
<path d="M111.439 38.8926H113.372V50.5111H111.439V38.8926Z" fill="#444444"/>
<path d="M115.408 46.3372V46.2961C115.408 43.8901 117.115 41.916 119.521 41.916C122.194 41.916 123.551 44.0135 123.551 46.4401C123.551 46.6251 123.531 46.7896 123.51 46.9747H117.32C117.526 48.3525 118.493 49.1134 119.747 49.1134C120.693 49.1134 121.351 48.7638 122.03 48.1057L123.161 49.1134C122.359 50.0593 121.269 50.6968 119.726 50.6968C117.3 50.7173 115.408 48.9488 115.408 46.3372ZM121.639 45.7203C121.515 44.4865 120.775 43.4994 119.5 43.4994C118.328 43.4994 117.485 44.4042 117.32 45.7203H121.639Z" fill="#444444"/>
<path d="M125.505 42.1001H127.438V43.375C127.972 42.6347 128.713 41.9355 130.008 41.9355C131.222 41.9355 132.065 42.5319 132.517 43.4161C133.196 42.5319 134.1 41.9355 135.375 41.9355C137.206 41.9355 138.316 43.1077 138.316 45.1435V50.5107H136.383V45.7399C136.383 44.4032 135.766 43.6835 134.676 43.6835C133.627 43.6835 132.867 44.4238 132.867 45.7604V50.5107H130.934V45.7193C130.934 44.4032 130.296 43.6835 129.227 43.6835C128.157 43.6835 127.417 44.4855 127.417 45.781V50.5107H125.484V42.1001H125.505Z" fill="#444444"/>
<path d="M140.537 47.4677V42.1211H142.47V46.8919C142.47 48.208 143.128 48.9483 144.28 48.9483C145.39 48.9483 146.171 48.1669 146.171 46.8713V42.1211H148.104V50.5111H146.171V49.1951C145.637 49.997 144.855 50.6756 143.539 50.6756C141.647 50.6962 140.537 49.4213 140.537 47.4677Z" fill="#444444"/>
<path d="M149.832 49.4208L150.696 48.1047C151.6 48.7833 152.587 49.1329 153.451 49.1329C154.274 49.1329 154.767 48.7833 154.767 48.2281V48.1869C154.767 47.5289 153.883 47.3027 152.896 47.0148C151.662 46.6652 150.264 46.1511 150.264 44.5472V44.506C150.264 42.9226 151.58 41.9355 153.266 41.9355C154.315 41.9355 155.466 42.3057 156.351 42.8815L155.59 44.2593C154.767 43.7657 153.924 43.4573 153.225 43.4573C152.485 43.4573 152.053 43.8069 152.053 44.3004V44.3415C152.053 44.9379 152.958 45.2052 153.945 45.5137C155.178 45.9044 156.556 46.4596 156.556 47.9607V48.0019C156.556 49.7704 155.178 50.6546 153.431 50.6546C152.197 50.6752 150.881 50.2433 149.832 49.4208Z" fill="#444444"/>
<path d="M158.593 38.8926H160.526V50.5111H158.593V38.8926Z" fill="#444444"/>
<path d="M163.075 38.9961H165.152V40.8263H163.075V38.9961ZM163.137 42.1012H165.07V50.5118H163.137V42.1012Z" fill="#444444"/>
<path d="M167.599 42.1001H169.532V43.375C170.067 42.6347 170.807 41.9355 172.103 41.9355C173.316 41.9355 174.159 42.5319 174.612 43.4161C175.29 42.5319 176.195 41.9355 177.47 41.9355C179.3 41.9355 180.411 43.1077 180.411 45.1435V50.5107H178.478V45.7399C178.478 44.4032 177.861 43.6835 176.771 43.6835C175.722 43.6835 174.961 44.4238 174.961 45.7604V50.5107H173.028V45.7193C173.028 44.4032 172.391 43.6835 171.322 43.6835C170.252 43.6835 169.512 44.4855 169.512 45.781V50.5107H167.579V42.1001H167.599Z" fill="#444444"/>
<path d="M182.262 46.3372V46.2961C182.262 43.8901 183.968 41.916 186.374 41.916C189.048 41.916 190.405 44.0135 190.405 46.4401C190.405 46.6251 190.384 46.7896 190.364 46.9747H184.174C184.38 48.3525 185.346 49.1134 186.601 49.1134C187.546 49.1134 188.204 48.7638 188.883 48.1057L190.014 49.1134C189.212 50.0593 188.122 50.6968 186.58 50.6968C184.153 50.7173 182.262 48.9488 182.262 46.3372ZM188.492 45.7203C188.369 44.4865 187.629 43.4994 186.354 43.4994C185.182 43.4994 184.338 44.4042 184.174 45.7203H188.492Z" fill="#444444"/>
<path d="M191.144 42.1016H193.221L195.483 48.2913L197.766 42.1016H199.781L196.347 50.5739H194.62L191.144 42.1016Z" fill="#444444"/>
<path d="M200.48 46.3372V46.2961C200.48 43.8901 202.187 41.916 204.593 41.916C207.266 41.916 208.624 44.0135 208.624 46.4401C208.624 46.6251 208.603 46.7896 208.582 46.9747H202.393C202.598 48.3525 203.565 49.1134 204.819 49.1134C205.765 49.1134 206.423 48.7638 207.102 48.1057L208.233 49.1134C207.431 50.0593 206.341 50.6968 204.799 50.6968C202.372 50.7173 200.48 48.9488 200.48 46.3372ZM206.711 45.7203C206.588 44.4865 205.847 43.4994 204.572 43.4994C203.4 43.4994 202.557 44.4042 202.393 45.7203H206.711Z" fill="#444444"/>
<path d="M210.578 42.1001H212.511V43.4161C213.046 42.6142 213.827 41.9355 215.143 41.9355C217.035 41.9355 218.145 43.2105 218.145 45.1641V50.5107H216.212V45.7399C216.212 44.4238 215.554 43.6835 214.403 43.6835C213.292 43.6835 212.511 44.4649 212.511 45.7604V50.5107H210.578V42.1001Z" fill="#444444"/>
<path d="M220.859 48.1869V43.7657H219.79V42.1H220.859V39.7969H222.792V42.1H225.054V43.7657H222.792V47.899C222.792 48.6393 223.183 48.9478 223.82 48.9478C224.252 48.9478 224.643 48.845 225.013 48.6599V50.2433C224.54 50.5106 223.985 50.6751 223.286 50.6751C221.846 50.6546 220.859 50.0377 220.859 48.1869Z" fill="#444444"/>
<path d="M226.308 49.4208L227.172 48.1047C228.077 48.7833 229.064 49.1329 229.928 49.1329C230.75 49.1329 231.244 48.7833 231.244 48.2281V48.1869C231.244 47.5289 230.359 47.3027 229.372 47.0148C228.139 46.6652 226.74 46.1511 226.74 44.5472V44.506C226.74 42.9226 228.056 41.9355 229.743 41.9355C230.791 41.9355 231.943 42.3057 232.827 42.8815L232.066 44.2593C231.244 43.7657 230.401 43.4573 229.701 43.4573C228.961 43.4573 228.529 43.8069 228.529 44.3004V44.3415C228.529 44.9379 229.434 45.2052 230.421 45.5137C231.655 45.9044 233.033 46.4596 233.033 47.9607V48.0019C233.033 49.7704 231.655 50.6546 229.907 50.6546C228.673 50.6752 227.357 50.2433 226.308 49.4208Z" fill="#444444"/>
<path d="M234.822 48.332H236.94V50.5118H234.822V48.332Z" fill="#444444"/>
<path d="M238.462 46.3578V46.3167C238.462 43.9313 240.312 41.916 242.821 41.916C244.405 41.916 245.392 42.5124 246.173 43.3555L244.98 44.651C244.384 44.0341 243.767 43.6022 242.801 43.6022C241.402 43.6022 240.374 44.8155 240.374 46.2755V46.3167C240.374 47.8178 241.402 49.0311 242.883 49.0311C243.788 49.0311 244.466 48.5993 245.063 47.9823L246.235 49.1339C245.412 50.0593 244.425 50.7173 242.801 50.7173C240.312 50.7173 238.462 48.7432 238.462 46.3578Z" fill="#444444"/>
<path d="M247.305 46.3578V46.3167C247.305 43.9107 249.217 41.916 251.787 41.916C254.358 41.916 256.27 43.8696 256.27 46.2755V46.3167C256.27 48.7021 254.358 50.6968 251.767 50.6968C249.217 50.7173 247.305 48.7432 247.305 46.3578ZM254.358 46.3578V46.3167C254.358 44.8361 253.289 43.6022 251.787 43.6022C250.245 43.6022 249.258 44.8155 249.258 46.2755V46.3167C249.258 47.7767 250.327 49.0311 251.829 49.0311C253.371 49.0311 254.358 47.8178 254.358 46.3578Z" fill="#444444"/>
<path d="M258.244 42.1001H260.177V43.375C260.712 42.6347 261.452 41.9355 262.747 41.9355C263.961 41.9355 264.804 42.5319 265.256 43.4161C265.935 42.5319 266.84 41.9355 268.115 41.9355C269.945 41.9355 271.055 43.1077 271.055 45.1435V50.5107H269.122V45.7399C269.122 44.4032 268.505 43.6835 267.415 43.6835C266.367 43.6835 265.606 44.4238 265.606 45.7604V50.5107H263.673V45.7193C263.673 44.4032 263.035 43.6835 261.966 43.6835C260.897 43.6835 260.156 44.4855 260.156 45.781V50.5107H258.223V42.1001H258.244Z" fill="#444444"/>
<path d="M0.518799 32.93C1.73206 31.2849 2.80138 29.7837 3.93239 28.3031C4.05577 28.118 4.40536 28.0152 4.63156 28.0152C9.03222 27.9947 13.4329 28.0152 17.8129 28.0152C18.2448 28.0152 18.6766 28.0152 19.0879 27.9741C19.7048 27.8918 20.1161 27.6039 20.0955 26.9048C20.075 26.2056 19.7459 25.7532 19.0673 25.6504C18.7794 25.6093 18.471 25.6093 18.1625 25.6093C14.2965 25.6298 10.4305 25.5476 6.56456 25.6709C3.68562 25.7738 1.4236 23.2239 1.34135 20.6122C1.32078 19.6252 1.27966 18.5559 1.62924 17.6511C2.3901 15.6152 4.13803 14.5254 6.19441 14.5048C12.7954 14.402 19.4169 14.4637 26.0179 14.4637C26.1207 14.4637 26.203 14.4842 26.3881 14.5254C25.8123 16.1293 25.2571 17.7128 24.6813 19.2962C24.4139 19.3167 24.2083 19.3167 23.9821 19.3167C19.129 19.2962 14.276 19.2756 9.44349 19.2756C8.84714 19.2756 8.20966 19.2962 7.675 19.5224C7.32542 19.6663 6.93471 20.1804 6.91414 20.5506C6.89358 20.859 7.32542 21.332 7.675 21.4965C8.10684 21.7021 8.64151 21.7227 9.13504 21.7227C12.8571 21.6816 16.5791 21.7227 20.2806 21.5376C24.2906 21.332 25.9973 24.725 25.6066 27.8507C25.1337 31.5933 22.4398 32.8477 19.7048 32.8889C13.5974 32.9505 7.48993 32.93 1.38248 32.93C1.15627 32.93 0.930075 32.93 0.518799 32.93Z" fill="url(#paint0_linear_60_6156)"/>
<path d="M48.6997 21.6192C46.9724 24.8066 45.3478 27.85 43.7027 30.8524C43.1064 31.9628 42.4072 33.0116 41.05 33.1966C40.4125 33.2789 39.7545 33.1555 38.9114 33.1144C39.2609 32.662 39.446 32.4358 39.6311 32.2096C41.1528 30.3588 41.6463 28.2202 41.4201 25.8759C41.3584 25.3413 41.4613 24.7243 41.6669 24.2308C42.9007 21.3313 44.2374 18.5141 46.2938 16.067C46.6228 15.6763 46.9518 15.3061 47.322 14.9771C49.0699 13.3731 51.3113 13.7021 52.4218 15.7996C52.977 16.8484 53.3266 18.0205 53.6556 19.1721C54.4782 21.9688 55.239 24.7655 55.9793 27.5827C56.1438 28.1791 56.514 28.1379 56.9458 28.1379C62.8065 28.1379 68.6466 28.1585 74.5073 28.1585C74.8158 28.1585 75.1448 28.1585 75.6383 28.1585C74.4251 29.7419 73.3352 31.2019 72.2247 32.6414C72.1014 32.7854 71.7929 32.847 71.5461 32.847C65.0891 32.8676 58.6321 32.847 52.175 32.8676C51.5787 32.8676 51.4964 32.5592 51.373 32.1273C50.5299 28.796 49.6868 25.4646 48.8231 22.1333C48.8231 22.0099 48.782 21.9071 48.6997 21.6192Z" fill="url(#paint1_linear_60_6156)"/>
<path d="M37.6779 32.024C36.7525 30.2143 35.8682 28.487 34.984 26.739C34.4905 25.752 34.0175 24.7649 33.5034 23.7779C33.2772 23.3255 33.0099 22.8936 32.7014 22.5029C32.5369 22.2767 32.249 22.1533 32.0228 21.9682C31.8994 22.215 31.6938 22.4618 31.6321 22.7085C30.8712 25.8548 30.1309 29.0011 29.4112 32.1473C29.2878 32.7026 29.0616 32.9288 28.4653 32.9082C27.2726 32.8465 26.0593 32.8876 24.8049 32.8876C25.2779 32.1473 25.7508 31.4893 26.121 30.7696C27.3754 28.4047 27.5193 25.9371 26.5734 23.4283C26.4294 23.0581 26.3472 22.6263 26.4294 22.2561C26.8613 20.2409 27.2109 18.1845 28.3008 16.416C28.7532 15.6757 29.3289 14.9765 30.0281 14.4624C31.2208 13.5576 32.7014 13.7427 33.709 14.8532C34.4493 15.6963 35.1485 16.6011 35.7037 17.5881C37.0404 19.9119 38.3359 22.2561 39.5286 24.6621C40.639 26.9858 39.8165 30.2143 37.6779 32.024Z" fill="url(#paint2_linear_60_6156)"/>
<path d="M54.0872 14.4434C61.2434 14.4434 68.3585 14.4434 75.597 14.4434C74.939 15.3276 74.322 16.1296 73.7257 16.9521C73.6846 17.0138 73.6023 17.055 73.5817 17.1167C72.7181 18.988 71.2169 19.2759 69.2839 19.2142C64.9861 19.0702 60.7088 19.1525 56.4109 19.1936C55.8352 19.1936 55.5678 19.0291 55.4033 18.4739C55.0537 17.3223 54.6219 16.1913 54.2312 15.0603C54.1695 14.8546 54.1489 14.6696 54.0872 14.4434Z" fill="url(#paint3_linear_60_6156)"/>
<path d="M56.1643 21.373C62.3951 21.373 68.482 21.373 74.7128 21.373C73.6847 22.792 72.7387 24.1286 71.7517 25.4447C71.6488 25.5886 71.3404 25.6092 71.1347 25.6092C66.7341 25.6092 62.354 25.6092 57.9533 25.6298C57.5832 25.6298 57.3775 25.5681 57.2747 25.1362C56.9457 23.9024 56.555 22.6891 56.1643 21.373Z" fill="url(#paint4_linear_60_6156)"/>
<path d="M52.9156 10.0017C52.9156 11.8113 51.5172 13.333 49.831 13.333C48.0831 13.3536 46.7053 11.8319 46.7053 9.87831C46.7053 8.08926 48.1448 6.56753 49.831 6.5881C51.5584 6.62922 52.9361 8.13038 52.9156 10.0017Z" fill="#575757"/>
<path d="M33.9352 9.98092C33.9352 11.8111 32.5574 13.3328 30.8712 13.3328C29.1438 13.3534 27.7249 11.8317 27.7249 9.98092C27.7249 8.10961 29.1233 6.58789 30.8301 6.58789C32.578 6.62902 33.9352 8.08905 33.9352 9.98092Z" fill="#575757"/>
<path d="M41.6875 13.8873L40.9472 13.3321C40.906 13.3938 40.906 13.4555 40.906 13.476C40.8855 13.3732 40.6181 12.818 37.8215 11.1729C37.7598 11.1317 37.6981 11.0906 37.657 11.0906C37.3485 10.9055 37.04 10.741 36.7316 10.5971C35.724 10.083 34.6752 9.52776 34.1817 8.27337C33.4208 6.40206 33.976 5.31218 34.5724 4.73639C35.7445 3.60538 37.9037 3.62595 39.5694 4.18117C39.6516 3.97553 39.775 3.7082 39.9395 3.35862C40.104 3.0296 40.4948 2.20704 40.6798 2.04253C41.4407 1.26111 42.51 0.870396 43.7027 0.973215C44.8954 1.07603 45.6974 1.56957 46.0881 2.45381C47.5687 5.78515 42.0165 13.4555 41.6875 13.8873C41.708 13.8873 41.708 13.8873 41.6875 13.8873ZM37.3691 4.71583C36.4848 4.71583 35.7034 4.94203 35.2304 5.39444C34.6546 5.94966 34.6135 6.79278 35.0659 7.90322C35.4361 8.84916 36.2586 9.26043 37.184 9.75397C37.4924 9.91848 37.8215 10.083 38.1505 10.2886L38.2944 10.3709C40.1452 11.4608 41.0294 12.1599 41.4407 12.6329C43.1269 10.2064 46.1498 4.94203 45.2244 2.82396C44.9777 2.26874 44.443 1.96028 43.5999 1.87802C42.9624 1.81633 42.0576 1.91915 41.3379 2.63888C41.1528 2.90621 39.6516 4.92147 39.59 5.20936C39.6105 5.10654 40.2891 4.38681 40.0629 4.28399L39.59 5.20936C38.8702 4.88034 38.1299 4.71583 37.3691 4.71583Z" fill="#DB0A17"/>
<path d="M91.0198 30.2553L92.8294 28.0961C94.4745 29.515 96.099 30.317 98.2377 30.317C100.088 30.317 101.26 29.4533 101.26 28.1578V28.1166C101.26 26.9034 100.582 26.2453 97.3945 25.505C93.7547 24.6208 91.6984 23.5515 91.6984 20.4052V20.3641C91.6984 17.4235 94.1454 15.4082 97.5385 15.4082C100.027 15.4082 102 16.1691 103.748 17.5674L102.144 19.8294C100.602 18.6779 99.0602 18.0609 97.4974 18.0609C95.7289 18.0609 94.7212 18.9657 94.7212 20.0968V20.1379C94.7212 21.454 95.5027 22.0503 98.7723 22.8317C102.391 23.716 104.262 25.0115 104.262 27.8493V27.8904C104.262 31.0984 101.754 32.9903 98.1554 32.9903C95.5438 32.9903 93.0761 32.0855 91.0198 30.2553Z" fill="#444444" stroke="#444444" stroke-miterlimit="10"/>
<path d="M107.018 15.6348H110.226L115.429 23.7163L120.632 15.6348H123.84V32.7439H120.817V20.4878L115.408 28.5488H115.306L109.959 20.529V32.7439H106.998V15.6348H107.018Z" fill="#444444" stroke="#444444" stroke-miterlimit="10"/>
<path d="M127.438 15.6348H140.126V18.3286H130.461V22.7704H139.036V25.4643H130.461V30.05H140.25V32.7439H127.459V15.6348H127.438Z" fill="#444444" stroke="#444444" stroke-miterlimit="10"/>
<path d="M149.585 15.6348H152.793L157.995 23.7163L163.178 15.6348H166.385V32.7439H163.383V20.4878L157.975 28.5488H157.872L152.525 20.529V32.7439H149.564V15.6348H149.585Z" fill="#444444" stroke="#444444" stroke-miterlimit="10"/>
<path d="M177.552 32.7437V31.1603C176.668 32.209 175.331 33.011 173.378 33.011C170.93 33.011 168.792 31.6127 168.792 29.0216V28.9805C168.792 26.1221 171.013 24.7444 174.015 24.7444C175.578 24.7444 176.586 24.9706 177.573 25.279V25.0323C177.573 23.2432 176.442 22.2767 174.406 22.2767C172.966 22.2767 171.897 22.5852 170.725 23.0787L169.923 20.7138C171.342 20.0764 172.74 19.6445 174.838 19.6445C178.642 19.6445 180.513 21.6392 180.513 25.0939V32.7437H177.552ZM177.614 27.3354C176.853 27.0475 175.804 26.8213 174.653 26.8213C172.802 26.8213 171.691 27.5822 171.691 28.816V28.8571C171.691 30.0704 172.781 30.7696 174.18 30.7696C176.133 30.7696 177.593 29.6797 177.593 28.0551V27.3354H177.614Z" fill="#444444" stroke="#444444" stroke-miterlimit="10"/>
<path d="M183.701 29.1865V22.4004H182.055V19.8505H183.701V16.293H186.662V19.8299H190.137V22.3799H186.662V28.7135C186.662 29.8651 187.258 30.3175 188.245 30.3175C188.903 30.3175 189.5 30.1735 190.075 29.8857V32.3122C189.335 32.7235 188.513 32.9702 187.423 32.9702C185.243 32.9702 183.701 32.0037 183.701 29.1865Z" fill="#444444" stroke="#444444" stroke-miterlimit="10"/>
<path d="M192.338 19.85H195.299V22.7495C196.101 20.8165 197.602 19.5005 199.864 19.6033V22.729H199.7C197.109 22.729 195.299 24.4152 195.299 27.8288V32.7436H192.338V19.85Z" fill="#444444" stroke="#444444" stroke-miterlimit="10"/>
<path d="M201.674 15.0586H204.84V17.8758H201.674V15.0586ZM201.797 19.85H204.758V32.7435H201.797V19.85Z" fill="#444444" stroke="#444444" stroke-miterlimit="10"/>
<path d="M207.843 19.8494H210.804V21.8029C211.626 20.6514 212.757 19.582 214.731 19.582C216.582 19.582 217.878 20.4868 218.577 21.8441C219.626 20.4663 221.003 19.582 222.957 19.582C225.774 19.582 227.481 21.3711 227.481 24.5173V32.7429H224.52V25.4222C224.52 23.3658 223.574 22.2759 221.908 22.2759C220.304 22.2759 219.153 23.4069 219.153 25.4838V32.7634H216.192V25.4016C216.192 23.4069 215.204 22.2759 213.58 22.2759C211.955 22.2759 210.824 23.4892 210.824 25.5044V32.7634H207.863V19.8494H207.843Z" fill="#444444" stroke="#444444" stroke-miterlimit="10"/>
<path d="M229.558 26.3681V26.327C229.558 22.646 232.499 19.582 236.447 19.582C240.396 19.582 243.316 22.5843 243.316 26.2653V26.3064C243.316 29.9668 240.375 33.0308 236.406 33.0308C232.458 33.0308 229.558 30.0285 229.558 26.3681ZM240.354 26.3681V26.327C240.354 24.0649 238.709 22.1731 236.406 22.1731C234.041 22.1731 232.52 24.0238 232.52 26.2858V26.327C232.52 28.5684 234.165 30.4809 236.447 30.4809C238.833 30.4603 240.354 28.589 240.354 26.3681Z" fill="#444444" stroke="#444444" stroke-miterlimit="10"/>
<path d="M245.536 19.8494H248.497V21.8441C249.32 20.6308 250.533 19.582 252.528 19.582C255.427 19.582 257.113 21.5356 257.113 24.5379V32.7429H254.152V25.4222C254.152 23.4275 253.145 22.2759 251.397 22.2759C249.69 22.2759 248.497 23.4686 248.497 25.4838V32.7634H245.536V19.8494Z" fill="#444444" stroke="#444444" stroke-miterlimit="10"/>
<path d="M259.108 35.952L260.116 33.7517C260.651 34.0396 261.247 34.2452 261.843 34.2452C262.666 34.2452 263.18 33.8751 263.674 32.7646L258.306 19.8711H261.453L265.113 29.4538L268.465 19.8711H271.55L266.429 33.1348C265.401 35.7669 264.249 36.754 262.172 36.754C260.918 36.7334 260.013 36.425 259.108 35.952Z" fill="#444444" stroke="#444444" stroke-miterlimit="10"/>
<path d="M83.802 14.0098V33.1341" stroke="#444444" stroke-width="2" stroke-miterlimit="10"/>
</g>
<defs>
<linearGradient id="paint0_linear_60_6156" x1="0.517021" y1="23.6866" x2="26.3971" y2="23.6816" gradientUnits="userSpaceOnUse">
<stop stop-color="#E11D1E"/>
<stop offset="0.3589" stop-color="#EA147E"/>
<stop offset="1" stop-color="#573675"/>
</linearGradient>
<linearGradient id="paint1_linear_60_6156" x1="38.9104" y1="23.5893" x2="75.6558" y2="23.5822" gradientUnits="userSpaceOnUse">
<stop stop-color="#E11D1E"/>
<stop offset="0.3589" stop-color="#EA147E"/>
<stop offset="1" stop-color="#573675"/>
</linearGradient>
<linearGradient id="paint2_linear_60_6156" x1="24.7999" y1="23.4236" x2="40.007" y2="23.4206" gradientUnits="userSpaceOnUse">
<stop stop-color="#E11D1E"/>
<stop offset="0.3589" stop-color="#EA147E"/>
<stop offset="1" stop-color="#573675"/>
</linearGradient>
<linearGradient id="paint3_linear_60_6156" x1="54.0795" y1="16.8287" x2="75.5949" y2="16.8245" gradientUnits="userSpaceOnUse">
<stop stop-color="#E11D1E"/>
<stop offset="0.3589" stop-color="#EA147E"/>
<stop offset="1" stop-color="#573675"/>
</linearGradient>
<linearGradient id="paint4_linear_60_6156" x1="56.161" y1="23.5028" x2="74.7037" y2="23.4993" gradientUnits="userSpaceOnUse">
<stop stop-color="#E11D1E"/>
<stop offset="0.3589" stop-color="#EA147E"/>
<stop offset="1" stop-color="#573675"/>
</linearGradient>
<clipPath id="clip0_60_6156">
<rect width="273" height="53" fill="white" transform="translate(0.0344238 0.5)"/>
</clipPath>
</defs>
</svg>
