<svg width="12" height="14" viewBox="0 0 12 14" fill="none" xmlns="http://www.w3.org/2000/svg">
<g clip-path="url(#clip0_60_6216)">
<path d="M8.51087 8.21089C7.81534 8.69513 7.00188 8.95307 6.17033 8.95307C5.33879 8.95307 4.52533 8.69513 3.82979 8.21089C2.93291 8.6589 2.16624 9.35546 1.61042 10.2273C1.0546 11.0991 0.730182 12.114 0.671289 13.1651C0.668586 13.2097 0.674534 13.2543 0.688764 13.2963C0.702993 13.3383 0.7252 13.3768 0.754005 13.4093C0.782835 13.4414 0.817547 13.4669 0.856006 13.4843C0.894466 13.5016 0.93586 13.5104 0.977643 13.5102H11.3783C11.4201 13.5104 11.4615 13.5016 11.5 13.4843C11.5384 13.4669 11.5731 13.4414 11.602 13.4093C11.6308 13.3768 11.653 13.3383 11.6672 13.2963C11.6814 13.2543 11.6874 13.2097 11.6847 13.1651C11.6244 12.1123 11.2977 11.0962 10.739 10.2242C10.1804 9.35224 9.41062 8.65666 8.51087 8.21089Z" fill="white"/>
<path d="M6.17014 8.30203C8.20047 8.30203 9.84638 6.55321 9.84638 4.39593C9.84638 2.23864 8.20047 0.489822 6.17014 0.489822C4.13981 0.489822 2.4939 2.23864 2.4939 4.39593C2.4939 6.55321 4.13981 8.30203 6.17014 8.30203Z" fill="white"/>
</g>
<defs>
<clipPath id="clip0_60_6216">
<rect width="11" height="13" fill="white" transform="translate(0.68457 0.5)"/>
</clipPath>
</defs>
</svg>
