<svg width="10" height="15" viewBox="0 0 10 15" fill="none" xmlns="http://www.w3.org/2000/svg">
<path d="M5.06 14.2C4.31333 14.2 3.63333 14.08 3.02 13.84C2.40667 13.6 1.87333 13.2533 1.42 12.8C0.966667 12.3333 0.613333 11.7667 0.36 11.1C0.12 10.4333 1.49012e-08 9.68 1.49012e-08 8.84C1.49012e-08 8.04 0.1 7.3 0.3 6.62C0.513333 5.92667 0.793333 5.28667 1.14 4.7C1.48667 4.1 1.88667 3.56 2.34 3.08C2.79333 2.58667 3.26 2.14667 3.74 1.76C4.22 1.37333 4.69333 1.04667 5.16 0.78C5.64 0.499999 6.08 0.273332 6.48 0.099999H8.72V0.279999C6.81333 1.24 5.3 2.23333 4.18 3.26C3.07333 4.27333 2.35333 5.43333 2.02 6.74C2.40667 6.18 2.89333 5.76 3.48 5.48C4.08 5.18667 4.76 5.04 5.52 5.04C6.10667 5.04 6.66 5.13333 7.18 5.32C7.71333 5.50667 8.18 5.78667 8.58 6.16C8.98 6.53333 9.3 7.00667 9.54 7.58C9.78 8.14 9.9 8.8 9.9 9.56C9.9 10.2533 9.77333 10.8867 9.52 11.46C9.28 12.02 8.94 12.5067 8.5 12.92C8.06 13.32 7.54667 13.6333 6.96 13.86C6.37333 14.0867 5.74 14.2 5.06 14.2ZM5 12.9C5.41333 12.9 5.80667 12.8333 6.18 12.7C6.55333 12.5667 6.88 12.3667 7.16 12.1C7.44 11.8333 7.66 11.4933 7.82 11.08C7.99333 10.6533 8.08 10.16 8.08 9.6C8.08 8.46667 7.80667 7.63333 7.26 7.1C6.71333 6.55333 6 6.28 5.12 6.28C4.36 6.28 3.71333 6.46667 3.18 6.84C2.64667 7.2 2.19333 7.66 1.82 8.22V8.84C1.82 9.6 1.90667 10.24 2.08 10.76C2.25333 11.2667 2.48667 11.68 2.78 12C3.07333 12.32 3.40667 12.5533 3.78 12.7C4.16667 12.8333 4.57333 12.9 5 12.9Z" fill="#8C8E97"/>
</svg>
