<svg width="88" height="96" viewBox="0 0 88 96" fill="none" xmlns="http://www.w3.org/2000/svg">
<rect width="88" height="96" rx="12" fill="#F4F8FF"/>
<path d="M54.6667 45.9997C54.313 45.9997 53.9739 46.1402 53.7239 46.3902C53.4738 46.6402 53.3333 46.9794 53.3333 47.333V56.6663C53.3333 57.02 53.1929 57.3591 52.9428 57.6091C52.6928 57.8592 52.3536 57.9997 52 57.9997H33.3333C32.9797 57.9997 32.6406 57.8592 32.3905 57.6091C32.1405 57.3591 32 57.02 32 56.6663V45.9997C32 45.6461 32.1405 45.3069 32.3905 45.0569C32.6406 44.8068 32.9797 44.6663 33.3333 44.6663H36C36.2907 44.6815 36.5785 44.6011 36.8192 44.4374C37.06 44.2737 37.2406 44.0356 37.3333 43.7597L38.0533 41.573C38.1428 41.3082 38.3132 41.0782 38.5405 40.9155C38.7678 40.7528 39.0405 40.6656 39.32 40.6663H46.6667C47.0203 40.6663 47.3594 40.5259 47.6095 40.2758C47.8595 40.0258 48 39.6866 48 39.333C48 38.9794 47.8595 38.6402 47.6095 38.3902C47.3594 38.1402 47.0203 37.9997 46.6667 37.9997H39.2533C38.4154 38.0012 37.5991 38.2659 36.9197 38.7563C36.2403 39.2468 35.732 39.9382 35.4667 40.733L35.04 42.0663H33.3333C32.2725 42.0663 31.255 42.4878 30.5049 43.2379C29.7548 43.9881 29.3333 45.0055 29.3333 46.0663V56.733C29.3333 57.7939 29.7548 58.8113 30.5049 59.5614C31.255 60.3116 32.2725 60.733 33.3333 60.733H52C53.0609 60.733 54.0783 60.3116 54.8284 59.5614C55.5786 58.8113 56 57.7939 56 56.733V47.3997C56.009 47.2191 55.9812 47.0385 55.9183 46.8689C55.8553 46.6994 55.7586 46.5444 55.6338 46.4135C55.5091 46.2825 55.3591 46.1783 55.1928 46.1072C55.0265 46.036 54.8475 45.9994 54.6667 45.9997ZM42.6667 44.6663C41.6118 44.6663 40.5807 44.9791 39.7036 45.5652C38.8266 46.1512 38.143 46.9842 37.7393 47.9587C37.3356 48.9332 37.23 50.0056 37.4358 51.0402C37.6416 52.0747 38.1495 53.025 38.8954 53.7709C39.6413 54.5168 40.5916 55.0247 41.6262 55.2305C42.6607 55.4363 43.7331 55.3307 44.7076 54.927C45.6822 54.5234 46.5151 53.8398 47.1012 52.9627C47.6872 52.0857 48 51.0545 48 49.9997C48 48.5852 47.4381 47.2286 46.4379 46.2284C45.4377 45.2282 44.0811 44.6663 42.6667 44.6663ZM42.6667 52.6663C42.1392 52.6663 41.6237 52.5099 41.1851 52.2169C40.7466 51.9239 40.4048 51.5074 40.203 51.0202C40.0011 50.5329 39.9483 49.9967 40.0512 49.4794C40.1541 48.9622 40.4081 48.487 40.781 48.1141C41.154 47.7411 41.6291 47.4871 42.1464 47.3842C42.6637 47.2814 43.1999 47.3342 43.6871 47.536C44.1744 47.7378 44.5909 48.0796 44.8839 48.5182C45.1769 48.9567 45.3333 49.4723 45.3333 49.9997C45.3333 50.7069 45.0524 51.3852 44.5523 51.8853C44.0522 52.3854 43.3739 52.6663 42.6667 52.6663ZM57.3333 37.9997H56V36.6663C56 36.3127 55.8595 35.9736 55.6095 35.7235C55.3594 35.4735 55.0203 35.333 54.6667 35.333C54.313 35.333 53.9739 35.4735 53.7239 35.7235C53.4738 35.9736 53.3333 36.3127 53.3333 36.6663V37.9997H52C51.6464 37.9997 51.3072 38.1402 51.0572 38.3902C50.8071 38.6402 50.6667 38.9794 50.6667 39.333C50.6667 39.6866 50.8071 40.0258 51.0572 40.2758C51.3072 40.5259 51.6464 40.6663 52 40.6663H53.3333V41.9997C53.3333 42.3533 53.4738 42.6924 53.7239 42.9425C53.9739 43.1925 54.313 43.333 54.6667 43.333C55.0203 43.333 55.3594 43.1925 55.6095 42.9425C55.8595 42.6924 56 42.3533 56 41.9997V40.6663H57.3333C57.6869 40.6663 58.0261 40.5259 58.2761 40.2758C58.5262 40.0258 58.6667 39.6866 58.6667 39.333C58.6667 38.9794 58.5262 38.6402 58.2761 38.3902C58.0261 38.1402 57.6869 37.9997 57.3333 37.9997Z" fill="#99BFFF"/>
</svg>
