<svg width="14" height="17" viewBox="0 0 14 17" fill="none" xmlns="http://www.w3.org/2000/svg">
<path d="M8.57139 11.8884V13.7723C8.57139 14.1711 8.45532 14.3705 8.22318 14.3705C8.08628 14.3705 7.95235 14.3051 7.82139 14.1741V11.4866C7.95235 11.3557 8.08628 11.2902 8.22318 11.2902C8.45532 11.2902 8.57139 11.4896 8.57139 11.8884ZM11.5893 11.8973V12.308H10.7857V11.8973C10.7857 11.4926 10.9196 11.2902 11.1875 11.2902C11.4553 11.2902 11.5893 11.4926 11.5893 11.8973ZM2.96425 9.95089H3.91961V9.11161H1.13389V9.95089H2.07139V15.0312H2.96425V9.95089ZM5.53568 15.0312H6.33032V10.6205H5.53568V13.9955C5.35711 14.2455 5.18747 14.3705 5.02675 14.3705C4.91961 14.3705 4.85711 14.308 4.83925 14.183C4.8333 14.1652 4.83032 14.061 4.83032 13.8705V10.6205H4.03568V14.1116C4.03568 14.4033 4.05949 14.6205 4.10711 14.7634C4.17854 14.9836 4.35116 15.0937 4.62497 15.0937C4.91068 15.0937 5.21425 14.9122 5.53568 14.5491V15.0312ZM9.36604 13.7098V11.9509C9.36604 11.5164 9.33925 11.2217 9.28568 11.067C9.18449 10.7336 8.97318 10.567 8.65175 10.567C8.35413 10.567 8.07735 10.7277 7.82139 11.0491V9.11161H7.02675V15.0312H7.82139V14.6027C8.08925 14.9301 8.36604 15.0937 8.65175 15.0937C8.97318 15.0937 9.18449 14.9301 9.28568 14.6027C9.33925 14.442 9.36604 14.1443 9.36604 13.7098ZM12.3839 13.6205V13.5045H11.5714C11.5714 13.808 11.5654 13.9896 11.5535 14.0491C11.5119 14.2634 11.3928 14.3705 11.1964 14.3705C10.9226 14.3705 10.7857 14.1652 10.7857 13.7545V12.9777H12.3839V12.058C12.3839 11.5878 12.3035 11.2426 12.1428 11.0223C11.9107 10.7187 11.5952 10.567 11.1964 10.567C10.7916 10.567 10.4732 10.7187 10.241 11.0223C10.0744 11.2426 9.99104 11.5878 9.99104 12.058V13.6027C9.99104 14.0729 10.0773 14.4182 10.25 14.6384C10.4821 14.942 10.8035 15.0937 11.2143 15.0937C11.6428 15.0937 11.9643 14.936 12.1785 14.6205C12.2857 14.4598 12.3482 14.2991 12.366 14.1384C12.3779 14.0848 12.3839 13.9122 12.3839 13.6205ZM6.95532 5.46875V3.59375C6.95532 3.18303 6.82735 2.97768 6.57139 2.97768C6.31544 2.97768 6.18747 3.18303 6.18747 3.59375V5.46875C6.18747 5.88542 6.31544 6.09375 6.57139 6.09375C6.82735 6.09375 6.95532 5.88542 6.95532 5.46875ZM13.375 12.1741C13.375 13.567 13.2976 14.6086 13.1428 15.2991C13.0595 15.6503 12.8869 15.9449 12.625 16.183C12.3631 16.4211 12.0595 16.558 11.7143 16.5937C10.619 16.7188 8.96723 16.7812 6.75889 16.7812C4.55056 16.7812 2.89877 16.7188 1.80354 16.5937C1.4583 16.558 1.15324 16.4211 0.888358 16.183C0.623477 15.9449 0.452346 15.6503 0.374965 15.2991C0.220203 14.6324 0.142822 13.5908 0.142822 12.1741C0.142822 10.7812 0.220203 9.73958 0.374965 9.04911C0.458298 8.69792 0.630918 8.40327 0.892822 8.16518C1.15473 7.92708 1.46127 7.7872 1.81247 7.74553C2.90175 7.62649 4.55056 7.56696 6.75889 7.56696C8.96723 7.56696 10.619 7.62649 11.7143 7.74553C12.0595 7.7872 12.3645 7.92708 12.6294 8.16518C12.8943 8.40327 13.0654 8.69792 13.1428 9.04911C13.2976 9.71577 13.375 10.7574 13.375 12.1741ZM4.46425 0.78125H5.37497L4.29461 4.34375V6.76339H3.40175V4.34375C3.31842 3.90327 3.13687 3.27232 2.85711 2.45089C2.63687 1.8378 2.44342 1.28125 2.27675 0.78125H3.22318L3.85711 3.12946L4.46425 0.78125ZM7.76782 3.75446V5.31696C7.76782 5.79911 7.68449 6.1503 7.51782 6.37053C7.29163 6.67411 6.97616 6.82589 6.57139 6.82589C6.17258 6.82589 5.86008 6.67411 5.63389 6.37053C5.46723 6.14434 5.38389 5.79315 5.38389 5.31696V3.75446C5.38389 3.27827 5.46723 2.93006 5.63389 2.70982C5.86008 2.40625 6.17258 2.25446 6.57139 2.25446C6.97616 2.25446 7.29163 2.40625 7.51782 2.70982C7.68449 2.93006 7.76782 3.27827 7.76782 3.75446ZM10.7589 2.30803V6.76339H9.94639V6.27232C9.63092 6.64137 9.32437 6.82589 9.02675 6.82589C8.75294 6.82589 8.57735 6.71577 8.49997 6.49553C8.45235 6.35268 8.42854 6.12946 8.42854 5.82589V2.30803H9.24104V5.58482C9.24104 5.78125 9.24401 5.88542 9.24997 5.89732C9.26782 6.02827 9.33032 6.09375 9.43747 6.09375C9.59818 6.09375 9.76782 5.96577 9.94639 5.70982V2.30803H10.7589Z" fill="white"/>
</svg>
