<svg width="58" height="50" viewBox="0 0 58 50" fill="none" xmlns="http://www.w3.org/2000/svg">
<path d="M35.109 28.8661L33.6753 28.6249C33.6632 28.7046 33.6814 28.7859 33.7263 28.8528C33.6231 28.7398 32.8502 28.1575 27.7734 27.9157L27.4938 27.9031C26.9444 27.8688 26.3873 27.8751 25.8531 27.8766C24.075 27.8862 22.2279 27.903 20.6141 26.5266C18.1982 24.485 18.1729 22.5875 18.5724 21.3578C19.3641 18.953 22.3638 17.3748 25.0834 16.956C25.0471 16.6112 25.0257 16.1566 25.0038 15.5422C24.9818 14.9277 24.9476 13.5518 25.0546 13.1751C25.3054 12.3435 25.743 11.5804 26.3339 10.9439C26.9248 10.3074 27.6534 9.81455 28.4639 9.50279C30.192 8.77713 31.6674 8.8835 32.8497 9.82135C37.3068 13.3597 35.239 28.0224 35.1142 28.8416L35.1106 28.8762L35.109 28.8661ZM22.4103 19.3193C21.1859 19.9649 20.2678 20.8531 19.9559 21.8074C19.571 22.9822 20.1199 24.1886 21.5533 25.4162C22.765 26.4442 24.1932 26.4335 25.849 26.4265C26.4076 26.4231 26.9879 26.4192 27.5863 26.4567L27.8471 26.4683C31.2101 26.6347 32.9404 26.9416 33.8668 27.2974C34.4228 22.7276 34.7791 13.1969 31.947 10.9525C31.2012 10.3595 30.2456 10.3211 29.0242 10.8342C28.418 11.0618 27.8715 11.4241 27.4257 11.8937C26.9799 12.3634 26.6466 12.928 26.4508 13.5452C26.3824 14.0435 25.7857 17.9359 25.9133 18.3709C25.8651 18.2107 26.2664 16.7289 25.8766 16.7488L25.9133 18.3709C24.6917 18.436 23.4978 18.7593 22.4103 19.3193Z" fill="white"/>
<path d="M28.7579 33.0475L27.4187 33.6132C27.4512 33.6869 27.5102 33.7457 27.584 33.7781C27.4363 33.7382 26.4715 33.6614 22.0577 36.1813L21.815 36.3207C21.333 36.5865 20.8662 36.8907 20.4162 37.1786C18.9209 38.1407 17.3712 39.146 15.2709 38.8504C12.1367 38.4237 11.0973 36.8361 10.7746 35.5839C10.1524 33.1299 11.837 30.1886 13.9073 28.376C13.6917 28.1045 13.4297 27.7323 13.0815 27.2256C12.7333 26.7189 11.9662 25.5761 11.8544 25.2008C11.6199 24.3645 11.5797 23.4858 11.7368 22.6316C11.894 21.7775 12.2443 20.9706 12.7611 20.2726C13.83 18.7331 15.1321 18.0312 16.6331 18.1883C22.2928 18.7828 28.4149 32.2657 28.7491 33.024L28.7647 33.0551L28.7579 33.0475ZM12.9195 31.8045C12.2328 33.0063 11.9345 34.2484 12.1833 35.2211C12.4888 36.419 13.5993 37.1425 15.4677 37.4094C17.0417 37.6267 18.2412 36.8514 19.6347 35.9571C20.1043 35.6545 20.5919 35.3399 21.1169 35.0505L21.3433 34.9203C24.2706 33.2564 25.8953 32.5869 26.868 32.3902C24.8853 28.2355 20.0723 20.0016 16.4782 19.6272C15.5306 19.527 14.7037 20.0072 13.9482 21.0956C13.5589 21.6129 13.292 22.2119 13.1678 22.8473C13.0436 23.4828 13.0653 24.1382 13.2312 24.7641C13.4408 25.2213 15.0258 28.8261 15.3668 29.1248C15.2402 29.0154 14.7838 27.5496 14.4655 27.7755L15.3668 29.1248C14.3709 29.8351 13.5368 30.7484 12.9195 31.8045Z" fill="white"/>
<path d="M38.3131 30.4618L37.4592 29.2851C37.3948 29.3335 37.3508 29.4043 37.336 29.4835C37.3415 29.3305 37.198 28.3734 33.7453 24.6438L33.5546 24.4389C33.1866 24.0295 32.7848 23.6436 32.4026 23.2704C31.1272 22.0313 29.7975 20.7492 29.6105 18.6364C29.3174 15.4869 30.6288 14.1154 31.7755 13.5179C34.0253 12.3569 37.2714 13.3326 39.5052 14.9394C39.7209 14.668 40.0242 14.3287 40.439 13.8749C40.8538 13.4211 41.7935 12.4154 42.1339 12.2217C42.8954 11.8041 43.7424 11.5662 44.6099 11.5261C45.4775 11.486 46.3427 11.6448 47.1394 11.9903C48.8808 12.6834 49.8589 13.793 50.0454 15.2906C50.7462 20.9382 38.9971 29.9508 38.3341 30.4479L38.3072 30.4701L38.3131 30.4618ZM35.9421 14.7526C34.6161 14.3554 33.3387 14.3458 32.4475 14.8081C31.3498 15.3766 30.8961 16.6219 31.0587 18.5022C31.203 20.0847 32.2294 21.0777 33.4157 22.2329C33.8166 22.6219 34.2333 23.0257 34.634 23.4717L34.812 23.6628C37.0948 26.1379 38.1144 27.5691 38.526 28.4721C42.1247 25.6013 49.0568 19.0509 48.6087 15.4652C48.4921 14.5195 47.8373 13.8226 46.6062 13.3328C46.0143 13.0706 45.3705 12.9461 44.7234 12.9688C44.0763 12.9915 43.4428 13.1608 42.8706 13.464C42.4727 13.7716 39.3197 16.1307 39.1059 16.5304C39.1838 16.3824 40.5084 15.6063 40.2163 15.3474L39.1059 16.5304C38.1887 15.721 37.1104 15.1151 35.9421 14.7526Z" fill="white"/>
</svg>
